<mxfile host="app.diagrams.net" modified="2023-04-06T09:35:46.549Z" agent="Mozilla/5.0 (Macintosh; Intel Mac OS X 10_15_7) AppleWebKit/537.36 (KHTML, like Gecko) Chrome/111.0.0.0 Safari/537.36" etag="hi9IaScfymr7NYb6l-bT" version="21.1.4" type="github">
  <diagram name="Page-1" id="TRyHVsz65nsi56p2mFv4">
    <mxGraphModel dx="2144" dy="1127" grid="1" gridSize="10" guides="1" tooltips="1" connect="1" arrows="1" fold="1" page="1" pageScale="1" pageWidth="850" pageHeight="1100" math="0" shadow="0">
      <root>
        <mxCell id="0" />
        <mxCell id="1" parent="0" />
        <mxCell id="1lUlBY1dEioY_ilVLsdF-1" value="&lt;font style=&quot;font-size: 28px;&quot;&gt;IB SWITCH L1&lt;br&gt;&lt;/font&gt;" style="rounded=0;whiteSpace=wrap;html=1;fillColor=#d5e8d4;strokeColor=#82b366;" vertex="1" parent="1">
          <mxGeometry y="360" width="790" height="80" as="geometry" />
        </mxCell>
        <mxCell id="1lUlBY1dEioY_ilVLsdF-2" value="&lt;font style=&quot;font-size: 28px;&quot;&gt;IB SWITCH 16X&lt;br&gt;&lt;/font&gt;" style="rounded=0;whiteSpace=wrap;html=1;fillColor=#dae8fc;strokeColor=#6c8ebf;" vertex="1" parent="1">
          <mxGeometry y="560" width="780" height="80" as="geometry" />
        </mxCell>
        <mxCell id="1lUlBY1dEioY_ilVLsdF-4" value="" style="shape=flexArrow;endArrow=classic;startArrow=classic;html=1;rounded=0;entryX=0.5;entryY=1;entryDx=0;entryDy=0;exitX=0.131;exitY=0;exitDx=0;exitDy=0;exitPerimeter=0;fillColor=#ffcccc;strokeColor=#36393d;" edge="1" parent="1">
          <mxGeometry width="100" height="100" relative="1" as="geometry">
            <mxPoint x="280" y="560" as="sourcePoint" />
            <mxPoint x="280" y="440" as="targetPoint" />
          </mxGeometry>
        </mxCell>
        <mxCell id="1lUlBY1dEioY_ilVLsdF-5" value="" style="shape=flexArrow;endArrow=classic;startArrow=classic;html=1;rounded=0;entryX=0.5;entryY=1;entryDx=0;entryDy=0;exitX=0.131;exitY=0;exitDx=0;exitDy=0;exitPerimeter=0;fillColor=#ffcccc;strokeColor=#36393d;" edge="1" parent="1">
          <mxGeometry width="100" height="100" relative="1" as="geometry">
            <mxPoint x="320" y="560" as="sourcePoint" />
            <mxPoint x="320" y="440" as="targetPoint" />
          </mxGeometry>
        </mxCell>
        <mxCell id="1lUlBY1dEioY_ilVLsdF-6" value="" style="shape=flexArrow;endArrow=classic;startArrow=classic;html=1;rounded=0;entryX=0.5;entryY=1;entryDx=0;entryDy=0;exitX=0.131;exitY=0;exitDx=0;exitDy=0;exitPerimeter=0;fillColor=#ffcccc;strokeColor=#36393d;" edge="1" parent="1">
          <mxGeometry width="100" height="100" relative="1" as="geometry">
            <mxPoint x="360" y="560" as="sourcePoint" />
            <mxPoint x="360" y="440" as="targetPoint" />
          </mxGeometry>
        </mxCell>
        <mxCell id="1lUlBY1dEioY_ilVLsdF-7" value="" style="shape=flexArrow;endArrow=classic;startArrow=classic;html=1;rounded=0;entryX=0.5;entryY=1;entryDx=0;entryDy=0;exitX=0.131;exitY=0;exitDx=0;exitDy=0;exitPerimeter=0;fillColor=#ffcccc;strokeColor=#36393d;" edge="1" parent="1">
          <mxGeometry width="100" height="100" relative="1" as="geometry">
            <mxPoint x="400" y="560" as="sourcePoint" />
            <mxPoint x="400" y="440" as="targetPoint" />
          </mxGeometry>
        </mxCell>
        <mxCell id="1lUlBY1dEioY_ilVLsdF-8" value="" style="shape=flexArrow;endArrow=classic;startArrow=classic;html=1;rounded=0;entryX=0.5;entryY=1;entryDx=0;entryDy=0;exitX=0.131;exitY=0;exitDx=0;exitDy=0;exitPerimeter=0;fillColor=#ffcccc;strokeColor=#36393d;" edge="1" parent="1">
          <mxGeometry width="100" height="100" relative="1" as="geometry">
            <mxPoint x="119.09" y="560" as="sourcePoint" />
            <mxPoint x="119.09" y="440" as="targetPoint" />
          </mxGeometry>
        </mxCell>
        <mxCell id="1lUlBY1dEioY_ilVLsdF-9" value="" style="shape=flexArrow;endArrow=classic;startArrow=classic;html=1;rounded=0;entryX=0.5;entryY=1;entryDx=0;entryDy=0;exitX=0.131;exitY=0;exitDx=0;exitDy=0;exitPerimeter=0;fillColor=#ffcccc;strokeColor=#36393d;" edge="1" parent="1">
          <mxGeometry width="100" height="100" relative="1" as="geometry">
            <mxPoint x="159.09" y="560" as="sourcePoint" />
            <mxPoint x="159.09" y="440" as="targetPoint" />
          </mxGeometry>
        </mxCell>
        <mxCell id="1lUlBY1dEioY_ilVLsdF-10" value="" style="shape=flexArrow;endArrow=classic;startArrow=classic;html=1;rounded=0;entryX=0.5;entryY=1;entryDx=0;entryDy=0;exitX=0.131;exitY=0;exitDx=0;exitDy=0;exitPerimeter=0;fillColor=#ffcccc;strokeColor=#36393d;" edge="1" parent="1">
          <mxGeometry width="100" height="100" relative="1" as="geometry">
            <mxPoint x="199.09" y="560" as="sourcePoint" />
            <mxPoint x="199.09" y="440" as="targetPoint" />
          </mxGeometry>
        </mxCell>
        <mxCell id="1lUlBY1dEioY_ilVLsdF-11" value="" style="shape=flexArrow;endArrow=classic;startArrow=classic;html=1;rounded=0;entryX=0.5;entryY=1;entryDx=0;entryDy=0;exitX=0.131;exitY=0;exitDx=0;exitDy=0;exitPerimeter=0;fillColor=#ffcccc;strokeColor=#36393d;" edge="1" parent="1">
          <mxGeometry width="100" height="100" relative="1" as="geometry">
            <mxPoint x="239.09" y="560" as="sourcePoint" />
            <mxPoint x="239.09" y="440" as="targetPoint" />
          </mxGeometry>
        </mxCell>
        <mxCell id="1lUlBY1dEioY_ilVLsdF-12" value="" style="shape=flexArrow;endArrow=classic;startArrow=classic;html=1;rounded=0;entryX=0.5;entryY=1;entryDx=0;entryDy=0;exitX=0.131;exitY=0;exitDx=0;exitDy=0;exitPerimeter=0;fillColor=#ffcccc;strokeColor=#36393d;" edge="1" parent="1">
          <mxGeometry width="100" height="100" relative="1" as="geometry">
            <mxPoint x="440" y="560" as="sourcePoint" />
            <mxPoint x="440" y="440" as="targetPoint" />
          </mxGeometry>
        </mxCell>
        <mxCell id="1lUlBY1dEioY_ilVLsdF-13" value="" style="shape=flexArrow;endArrow=classic;startArrow=classic;html=1;rounded=0;entryX=0.5;entryY=1;entryDx=0;entryDy=0;exitX=0.131;exitY=0;exitDx=0;exitDy=0;exitPerimeter=0;fillColor=#ffcccc;strokeColor=#36393d;" edge="1" parent="1">
          <mxGeometry width="100" height="100" relative="1" as="geometry">
            <mxPoint x="480" y="560" as="sourcePoint" />
            <mxPoint x="480" y="440" as="targetPoint" />
          </mxGeometry>
        </mxCell>
        <mxCell id="1lUlBY1dEioY_ilVLsdF-14" value="" style="shape=flexArrow;endArrow=classic;startArrow=classic;html=1;rounded=0;entryX=0.5;entryY=1;entryDx=0;entryDy=0;exitX=0.131;exitY=0;exitDx=0;exitDy=0;exitPerimeter=0;fillColor=#ffcccc;strokeColor=#36393d;" edge="1" parent="1">
          <mxGeometry width="100" height="100" relative="1" as="geometry">
            <mxPoint x="520" y="560" as="sourcePoint" />
            <mxPoint x="520" y="440" as="targetPoint" />
          </mxGeometry>
        </mxCell>
        <mxCell id="1lUlBY1dEioY_ilVLsdF-15" value="" style="shape=flexArrow;endArrow=classic;startArrow=classic;html=1;rounded=0;entryX=0.5;entryY=1;entryDx=0;entryDy=0;exitX=0.131;exitY=0;exitDx=0;exitDy=0;exitPerimeter=0;fillColor=#ffcccc;strokeColor=#36393d;" edge="1" parent="1">
          <mxGeometry width="100" height="100" relative="1" as="geometry">
            <mxPoint x="560" y="560" as="sourcePoint" />
            <mxPoint x="560" y="440" as="targetPoint" />
          </mxGeometry>
        </mxCell>
      </root>
    </mxGraphModel>
  </diagram>
</mxfile>
